<?xml version="1.0" encoding="utf-8"?>
<!-- Generator: Adobe Illustrator 16.0.4, SVG Export Plug-In . SVG Version: 6.00 Build 0)  -->
<!DOCTYPE svg PUBLIC "-//W3C//DTD SVG 1.1//EN" "http://www.w3.org/Graphics/SVG/1.1/DTD/svg11.dtd">
<svg version="1.1" id="Layer_1" xmlns="http://www.w3.org/2000/svg" xmlns:xlink="http://www.w3.org/1999/xlink" x="0px" y="0px"
	 width="750px" height="1000px" viewBox="0 0 750 1000" style="enable-background:new 0 0 750 1000;" xml:space="preserve">
<style type="text/css">
<![CDATA[
	.st0{fill:#AFAFAF;}
	.st1{fill:#E0E0E0;}
	.st2{fill:#E293E0;}
	.st3{fill:#E8E8E8;}
	.st4{fill:#B104BA;}
	.st5{fill:#B2B2B2;}
	.st6{fill:#840D76;}
	.st7{fill:#EAEAEA;}
	.st8{fill:#BA65BA;}
	.st9{fill:#BABABA;}
	.st10{fill:#FFFFFF;fill-opacity:0.2;}
	.st11{fill:#BCBCBC;}
	.st12{fill:#231F20;}
	.st13{opacity:0.5;fill:#FFFFFF;}
	.st14{fill:#F41CDA;}
	.st15{fill:#914E93;}
	.st16{fill:#C1C1C1;}
	.st17{fill:#63255C;}
	.st18{fill:#9B9B9B;}
	.st19{fill:#CC8DCE;}
	.st20{fill:#020202;}
	.st21{fill:#D3D3D3;}
	.st22{fill:#D8D8D8;}
	.st23{fill:#753875;}
	.st24{fill:#DF08BE;}
]]>
</style>
<path class="st0" d="M260,479.7l113.8,143.4l89.7-143.4l190.1,95.5c0,0-135.9,141-220.3,220.7c0,0-75.5-54.8-147.2,0
	c0,0-82.9-86-193-220.7L260,479.7z"/>
<path class="st5" d="M210.6,789.9c0,0-21,59.8,0,196.1c0,0,197,23.8,321.8,0c0,0,20.7-54,9.7-196.1
	C542.1,789.9,376.4,663.6,210.6,789.9z"/>
<path class="st2" d="M217.1,855.9c-2.3-5.3-1.3-3.9,0-10.6c0,0,0-11.1,10.2-11.1c0,0-6.4,0-5.7-5c0.6-5,3.2-25,14-24.5
	c0,0-9.1-15.2,23.6-39c0,0-17.6-8.7,13.3-27.9c0,0-9.4-39.8,102.3-34.8v270.1c0,0-2.3-1.1-15.8,0c-13.5,1.1-78,7.2-88.9,5
	c-10.9-2.2-31.3-3.3-33.8-8.3c-2.6-5-9.6-15.6-9.6-22.8c0-7.2-2.6-21.1-1.9-24.5s-1.3-10-0.6-14.5
	C224.8,903.7,223.5,870.3,217.1,855.9z"/>
<path class="st2" d="M532.4,855.9c2.3-5.3,1.3-3.9,0-10.6c0,0,0-11.1-10.2-11.1c0,0,6.4,0,5.7-5c-0.6-5-3.2-25-14-24.5
	c0,0,9.1-15.2-23.6-39c0,0,17.6-8.7-13.3-27.9c0,0,9.4-39.8-102.3-34.8v270.1c0,0,2.3-1.1,15.8,0c13.5,1.1,78,7.2,88.9,5
	c10.9-2.2,31.3-3.3,33.8-8.3c2.6-5,9.6-15.6,9.6-22.8c0-7.2,2.6-21.1,1.9-24.5c-0.6-3.3,1.3-10,0.6-14.5
	C524.8,903.7,526.1,870.3,532.4,855.9z"/>
<path class="st23" d="M374.8,883.3c0,0,5.1,14.1,16.2,8.2c11.1-5.9,55.3-55.6,106.4-8.2c0,0-11.9-0.7-19.6,4.4
	c-7.7,5.2-61.3,12.6-74,8.2C390.9,891.4,377.3,901.1,374.8,883.3z"/>
<path class="st23" d="M370.3,883.3c0,0-5.1,14.1-16.2,8.2c-11.1-5.9-55.3-55.6-106.4-8.2c0,0,11.9-0.7,19.6,4.4
	c7.7,5.2,61.3,12.6,74,8.2C354.2,891.4,367.8,901.1,370.3,883.3z"/>
<path class="st19" d="M219.7,830c0,0,39.9-8.3,63-2.4c23.1,6,65.3,26.4,70.1,49.1c0,0-24.5-42.1-78.1-47.4
	C221.1,824.1,232,841.2,219.7,830z"/>
<path class="st19" d="M528.7,830c0,0-39.9-8.3-63-2.4c-23.1,6-65.3,26.4-70.1,49.1c0,0,24.5-42.1,78.1-47.4
	C527.3,824.1,516.4,841.2,528.7,830z"/>
<path class="st19" d="M234.7,803.7c0,0,5.1,7.4,40.9-3c0,0-41.7,5.2-40.9,0C235.6,795.6,234.7,803.7,234.7,803.7z"/>
<path class="st19" d="M514.1,806.9c0,0-5.1,7.4-40.9-3c0,0,41.7,5.2,40.9,0C513.3,798.7,514.1,806.9,514.1,806.9z"/>
<path class="st15" d="M257,878.8c0,0,64.2,27.6,83.5,9.4C340.5,888.2,293.3,872.8,257,878.8z"/>
<path class="st8" d="M342.2,889.8c0,0-43.3-42.1-87.1-9.7C255.1,880.1,277.4,875.3,342.2,889.8z"/>
<path class="st15" d="M487.8,880.5c0,0-64.2,27.6-83.5,9.4C404.3,889.9,451.5,874.5,487.8,880.5z"/>
<path class="st8" d="M402.6,891.4c0,0,43.3-42.1,87.1-9.7C489.7,881.8,467.4,877,402.6,891.4z"/>
<path class="st19" d="M259.2,765.7c0,0-7.2-3.8-4.9-9.1c2.3-5.3,15.9-3.6,21.3,2.5c5.4,6.1,61.2,73.6,78.8,86.4
	C354.3,845.6,259.1,771.8,259.2,765.7z"/>
<path class="st19" d="M489.7,768.9c0,0,7.2-3.8,4.9-9.1c-2.3-5.3-15.9-3.6-21.3,2.5c-5.4,6.1-61.2,73.6-78.8,86.4
	C394.5,848.7,489.7,774.9,489.7,768.9z"/>
<path class="st23" d="M248.8,945.5c-1.1,1.4,0.9-12.8,24.5-15.6c23.6-2.8,63.2,0,76,0s6.3-3,24.9-1.2c18.6,1.8,83,4.6,97.7,2.9
	c14.7-1.7,19.8-5.7,26.2,5.2c6.4,10.9,0,8.7,0,8.7s0.7-10.3-8.1-12.8c-8.8-2.5-35.9,6.1-120.2-1.1c0,0-92.4-1.1-99.2,1.7
	C263.8,936,259.4,932.1,248.8,945.5z"/>
<path class="st19" d="M223.7,893.4c0,0-2.7-2.8,11-1.7c13.7,1.1,23.8,6.1,60.5,13.3c36.8,7.2,50.8,5,57.5,3.3
	c6.7-1.7-32.2,10-80.4,1.7c-48.2-8.3-35.4-5.6-37.7-7.8c-2.3-2.2-5.4-5.1-8-4.2C224.1,898.9,223.7,893.4,223.7,893.4z"/>
<path class="st19" d="M527,893.4c0,0,2.7-2.8-11-1.7s-23.8,6.1-60.5,13.3c-36.8,7.2-50.8,5-57.5,3.3c-6.7-1.7,32.2,10,80.4,1.7
	c48.2-8.3,35.4-5.6,37.7-7.8c2.3-2.2,5.4-5.1,8-4.2C526.6,898.9,527,893.4,527,893.4z"/>
<path class="st19" d="M272.4,737.8c0,0-2.9-32.8,35.7-13.6c10.7,5.3,27.2,35.1,32.6,47.1c5.1,11.4,22.1,61.8,22.1,61.8
	s-44.3-90.9-66.4-96.7C290.1,734.8,285.4,732.5,272.4,737.8z"/>
<path class="st19" d="M476.8,737.8c0,0,2.9-32.8-35.7-13.6c-10.7,5.3-27.2,35.1-32.6,47.1c-5.1,11.4-22.1,61.8-22.1,61.8
	s44.2-90.9,66.4-96.7C459.2,734.8,463.8,732.5,476.8,737.8z"/>
<path class="st19" d="M370.3,702.6l3.4,170.3c0,0,8.5-151.7,4.3-170.3C373.8,683.9,370.3,702.6,370.3,702.6z"/>
<path class="st1" d="M428.3,750.7c0,0-19.5-18.1-52.2-18.1c-32.7,0-58.7,9.4-56.7,13.9l10.3,26.9h6.1l6.9,12.6h9.2l10.8,8.3h24.9
	l10.8-8.3h9.3l6.9-12.6h3.6L428.3,750.7z M382.6,775.1h-14.7l-2.3-1.8h19.3L382.6,775.1z"/>
<g>
	<polygon class="st24" points="368,788.7 361.2,776.9 368,765.1 381.6,765.1 388.4,776.9 381.6,788.7 	"/>
	<path class="st4" d="M382.4,790.2h-15.3l-7.7-13.3l7.7-13.3h15.3l7.7,13.3L382.4,790.2z M368.8,787.2h11.9l5.9-10.3l-5.9-10.3
		h-11.9l-5.9,10.3L368.8,787.2z"/>
</g>
<g>
	<polygon class="st24" points="351.2,778.4 344.4,766.7 351.2,754.9 364.8,754.9 371.6,766.7 364.8,778.4 	"/>
	<path class="st4" d="M365.7,779.9h-15.3l-7.7-13.3l7.7-13.3h15.3l7.7,13.3L365.7,779.9z M352.1,776.9H364l5.9-10.3l-5.9-10.3h-11.9
		l-5.9,10.3L352.1,776.9z"/>
</g>
<g>
	<polygon class="st24" points="384.7,778.4 377.9,766.7 384.7,754.9 398.3,754.9 405.1,766.7 398.3,778.4 	"/>
	<path class="st4" d="M399.2,779.9h-15.3l-7.7-13.3l7.7-13.3h15.3l7.7,13.3L399.2,779.9z M385.6,776.9h11.9l5.9-10.3l-5.9-10.3
		h-11.9l-5.9,10.3L385.6,776.9z"/>
</g>
<path class="st1" d="M204.6,943.7c1.4,13.4,3.2,27.8,5.6,43.1c0,0,197,23.8,321.8,0c0,0,4.5-11.8,8.2-38.8
	C418.4,961.1,270.1,950,204.6,943.7z"/>
<path class="st22" d="M371.9,953.1v43.6c53.3,0.8,110.7-1.4,157.9-10.5c0,0,4.5-11.8,8.2-38.8C484.7,953.2,426.3,954.2,371.9,953.1z
	"/>
<circle class="st3" cx="665.6" cy="623.6" r="70.1"/>
<circle class="st22" cx="665.6" cy="623.6" r="52.3"/>
<path class="st16" d="M673.4,917.8c0,4.6-15.2,5.3-15.2,0c0-7.6,0-18,0-18h15.2C673.4,899.7,673.4,913.2,673.4,917.8z"/>
<ellipse class="st22" cx="665.8" cy="899.2" rx="23.6" ry="6.3"/>
<path class="st16" d="M673.4,897c0,4.6-15.2,5.3-15.2,0c0-7.6,0-7.9,0-7.9h15.2C673.4,889.1,673.4,892.4,673.4,897z"/>
<ellipse class="st22" cx="665.8" cy="887.9" rx="23.6" ry="6.3"/>
<path class="st16" d="M673.4,885.5c0,4.6-15.2,5.3-15.2,0c0-7.6,0-7.9,0-7.9h15.2C673.4,877.6,673.4,880.9,673.4,885.5z"/>
<ellipse class="st22" cx="665.8" cy="876.6" rx="23.6" ry="6.3"/>
<path class="st16" d="M674.2,873.6c0,4.6-15.2,5.3-15.2,0c0-7.6,0-58.7,0-58.7h15.2C674.2,814.9,674.2,869,674.2,873.6z"/>
<path class="st16" d="M94.1,917.8c0,4.6-15.2,5.3-15.2,0c0-7.6,0-18,0-18h15.2C94.1,899.7,94.1,913.2,94.1,917.8z"/>
<circle class="st3" cx="87.2" cy="623.6" r="70.1"/>
<ellipse class="st22" cx="86.4" cy="899.2" rx="23.6" ry="6.3"/>
<path class="st16" d="M94.1,897c0,4.6-15.2,5.3-15.2,0c0-7.6,0-7.9,0-7.9h15.2C94.1,889.1,94.1,892.4,94.1,897z"/>
<ellipse class="st22" cx="86.4" cy="887.9" rx="23.6" ry="6.3"/>
<path class="st16" d="M94.1,885.5c0,4.6-15.2,5.3-15.2,0c0-7.6,0-7.9,0-7.9h15.2C94.1,877.6,94.1,880.9,94.1,885.5z"/>
<ellipse class="st22" cx="86.4" cy="876.6" rx="23.6" ry="6.3"/>
<path class="st16" d="M94.8,873.6c0,4.6-15.2,5.3-15.2,0c0-7.6,0-58.7,0-58.7h15.2C94.8,814.9,94.8,869,94.8,873.6z"/>
<path class="st1" d="M118.8,846c0,13.3-66.1,16.1-66.1,0c0-16.1-2.2-141.8-2.2-159.7c0-17.9,72.1-19.5,72.1,0
	C122.5,705.7,118.8,832.7,118.8,846z"/>
<path class="st1" d="M698.1,846.5c0,13.3-65.4,16.1-65.4,0c0-16.1-3-141.8-3-159.7c0-17.9,72.1-19.5,72.1,0
	C701.8,706.2,698.1,833.2,698.1,846.5z"/>
<polygon class="st24" points="63.6,836.5 63.6,703.7 70.7,692.8 102.2,692.8 109.3,703.7 109.3,836.5 "/>
<g>
	<circle class="st10" cx="74.1" cy="814.9" r="4.3"/>
	<path class="st13" d="M74.1,819.7c-2.7,0-4.8-2.2-4.8-4.8s2.2-4.8,4.8-4.8c2.7,0,4.8,2.2,4.8,4.8S76.8,819.7,74.1,819.7z
		 M74.1,811.1c-2.1,0-3.8,1.7-3.8,3.8c0,2.1,1.7,3.8,3.8,3.8s3.8-1.7,3.8-3.8C77.9,812.8,76.2,811.1,74.1,811.1z"/>
</g>
<g>
	<circle class="st10" cx="76.9" cy="781" r="2.8"/>
	<path class="st13" d="M76.9,784.3c-1.8,0-3.3-1.5-3.3-3.3c0-1.8,1.5-3.3,3.3-3.3c1.8,0,3.3,1.5,3.3,3.3
		C80.2,782.8,78.7,784.3,76.9,784.3z M76.9,778.7c-1.3,0-2.3,1-2.3,2.3s1,2.3,2.3,2.3s2.3-1,2.3-2.3S78.2,778.7,76.9,778.7z"/>
</g>
<g>
	<circle class="st10" cx="94.1" cy="819.9" r="5"/>
	<path class="st13" d="M94.1,825.4c-0.3,0-0.5,0-0.8-0.1c-1.4-0.2-2.7-1-3.6-2.1c-0.9-1.2-1.3-2.6-1-4.1c0.4-2.9,3.2-5.1,6.2-4.7
		c1.4,0.2,2.7,1,3.6,2.1c0.9,1.2,1.3,2.6,1,4.1C99.1,823.3,96.8,825.4,94.1,825.4z M94,815.4c-2.2,0-4.1,1.7-4.4,3.9
		c-0.2,1.2,0.1,2.4,0.9,3.3c0.7,1,1.8,1.6,3,1.7c2.5,0.3,4.7-1.4,5.1-3.8c0.2-1.2-0.1-2.4-0.9-3.3c-0.7-1-1.8-1.6-3-1.7
		C94.5,815.4,94.3,815.4,94,815.4z"/>
</g>
<g>
	<circle class="st10" cx="79.8" cy="747.5" r="4.7"/>
	<path class="st13" d="M79.8,752.8c-2.9,0-5.2-2.3-5.2-5.2c0-2.9,2.3-5.2,5.2-5.2s5.2,2.3,5.2,5.2C85,750.4,82.7,752.8,79.8,752.8z
		 M79.8,743.3c-2.3,0-4.2,1.9-4.2,4.2c0,2.3,1.9,4.2,4.2,4.2s4.2-1.9,4.2-4.2C84,745.2,82.1,743.3,79.8,743.3z"/>
</g>
<g>
	<circle class="st10" cx="75" cy="716.2" r="2.9"/>
	<path class="st13" d="M75,719.6c-1.9,0-3.4-1.5-3.4-3.4s1.5-3.4,3.4-3.4c1.9,0,3.4,1.5,3.4,3.4S76.9,719.6,75,719.6z M75,713.9
		c-1.3,0-2.4,1.1-2.4,2.4c0,1.3,1.1,2.4,2.4,2.4s2.4-1.1,2.4-2.4C77.4,714.9,76.3,713.9,75,713.9z"/>
</g>
<g>
	<circle class="st10" cx="79.9" cy="775.7" r="4.8"/>
	<path class="st13" d="M79.9,780.9c-2.9,0-5.3-2.4-5.3-5.3s2.4-5.3,5.3-5.3s5.3,2.4,5.3,5.3S82.8,780.9,79.9,780.9z M79.9,771.4
		c-2.3,0-4.3,1.9-4.3,4.3c0,2.3,1.9,4.3,4.3,4.3c2.3,0,4.3-1.9,4.3-4.3C84.2,773.3,82.2,771.4,79.9,771.4z"/>
</g>
<g>
	<circle class="st10" cx="94.8" cy="733" r="8.8"/>
	<path class="st13" d="M94.8,742.4c-5.2,0-9.3-4.2-9.3-9.3c0-5.2,4.2-9.3,9.3-9.3c5.2,0,9.3,4.2,9.3,9.3
		C104.2,738.2,100,742.4,94.8,742.4z M94.8,724.7c-4.6,0-8.3,3.7-8.3,8.3c0,4.6,3.7,8.3,8.3,8.3c4.6,0,8.3-3.7,8.3-8.3
		C103.2,728.4,99.4,724.7,94.8,724.7z"/>
</g>
<g>
	<circle class="st10" cx="99.6" cy="756.9" r="4.8"/>
	<path class="st13" d="M99.6,762.1c-2.9,0-5.3-2.4-5.3-5.3s2.4-5.3,5.3-5.3c2.9,0,5.3,2.4,5.3,5.3S102.5,762.1,99.6,762.1z
		 M99.6,752.6c-2.3,0-4.3,1.9-4.3,4.3c0,2.3,1.9,4.3,4.3,4.3c2.3,0,4.3-1.9,4.3-4.3C103.8,754.5,101.9,752.6,99.6,752.6z"/>
</g>
<rect x="63.6" y="732" class="st17" width="45.6" height="2"/>
<rect x="63.6" y="768.8" class="st17" width="45.6" height="2"/>
<rect x="63.6" y="805.5" class="st17" width="45.6" height="2"/>
<polygon class="st24" points="643.7,836.9 643.7,704.2 650.9,693.3 682.3,693.3 689.4,704.2 689.4,836.9 "/>
<g>
	<circle class="st10" cx="675.8" cy="800.2" r="4.3"/>
	<path class="st13" d="M675.8,805.1c-2.7,0-4.8-2.2-4.8-4.8s2.2-4.8,4.8-4.8c2.7,0,4.8,2.2,4.8,4.8S678.4,805.1,675.8,805.1z
		 M675.8,796.4c-2.1,0-3.8,1.7-3.8,3.8s1.7,3.8,3.8,3.8c2.1,0,3.8-1.7,3.8-3.8S677.9,796.4,675.8,796.4z"/>
</g>
<g>
	<circle class="st10" cx="666.6" cy="787.1" r="2.8"/>
	<path class="st13" d="M666.6,790.4c-1.8,0-3.3-1.5-3.3-3.3c0-1.8,1.5-3.3,3.3-3.3c1.8,0,3.3,1.5,3.3,3.3
		C669.9,788.9,668.4,790.4,666.6,790.4z M666.6,784.8c-1.3,0-2.3,1-2.3,2.3c0,1.3,1,2.3,2.3,2.3c1.3,0,2.3-1,2.3-2.3
		C668.9,785.8,667.8,784.8,666.6,784.8z"/>
</g>
<g>
	<circle class="st10" cx="377.2" cy="779.2" r="1.1"/>
	<path class="st13" d="M377.2,780.8c-0.9,0-1.6-0.7-1.6-1.6s0.7-1.6,1.6-1.6s1.6,0.7,1.6,1.6S378.1,780.8,377.2,780.8z M377.2,778.6
		c-0.3,0-0.6,0.3-0.6,0.6s0.3,0.6,0.6,0.6c0.3,0,0.6-0.3,0.6-0.6S377.5,778.6,377.2,778.6z"/>
</g>
<g>
	<circle class="st10" cx="353.5" cy="766.7" r="1.1"/>
	<path class="st13" d="M353.5,768.3c-0.9,0-1.6-0.7-1.6-1.6s0.7-1.6,1.6-1.6s1.6,0.7,1.6,1.6S354.4,768.3,353.5,768.3z M353.5,766.1
		c-0.3,0-0.6,0.3-0.6,0.6s0.3,0.6,0.6,0.6c0.3,0,0.6-0.3,0.6-0.6S353.8,766.1,353.5,766.1z"/>
</g>
<g>
	<circle class="st10" cx="357.8" cy="763.4" r="1.1"/>
	<path class="st13" d="M357.8,765c-0.9,0-1.6-0.7-1.6-1.6c0-0.9,0.7-1.6,1.6-1.6s1.6,0.7,1.6,1.6C359.4,764.3,358.6,765,357.8,765z
		 M357.8,762.8c-0.3,0-0.6,0.3-0.6,0.6c0,0.3,0.3,0.6,0.6,0.6c0.3,0,0.6-0.3,0.6-0.6C358.4,763.1,358.1,762.8,357.8,762.8z"/>
</g>
<g>
	<circle class="st10" cx="397" cy="764.8" r="2.4"/>
	<path class="st13" d="M397,767.6c-1.6,0-2.9-1.3-2.9-2.9c0-1.6,1.3-2.9,2.9-2.9s2.9,1.3,2.9,2.9C399.8,766.4,398.5,767.6,397,767.6
		z M397,762.9c-1,0-1.9,0.8-1.9,1.9c0,1,0.8,1.9,1.9,1.9c1,0,1.9-0.8,1.9-1.9C398.8,763.8,398,762.9,397,762.9z"/>
</g>
<g>
	<circle class="st10" cx="394.5" cy="770.2" r="2.4"/>
	<path class="st13" d="M394.5,773.1c-1.6,0-2.9-1.3-2.9-2.9c0-1.6,1.3-2.9,2.9-2.9s2.9,1.3,2.9,2.9
		C397.3,771.8,396,773.1,394.5,773.1z M394.5,768.4c-1,0-1.9,0.8-1.9,1.9c0,1,0.8,1.9,1.9,1.9s1.9-0.8,1.9-1.9
		C396.3,769.2,395.5,768.4,394.5,768.4z"/>
</g>
<g>
	<circle class="st10" cx="653.6" cy="776.4" r="2.8"/>
	<path class="st13" d="M653.6,779.7c-1.8,0-3.3-1.5-3.3-3.3s1.5-3.3,3.3-3.3c1.8,0,3.3,1.5,3.3,3.3S655.4,779.7,653.6,779.7z
		 M653.6,774.1c-1.3,0-2.3,1-2.3,2.3s1,2.3,2.3,2.3c1.3,0,2.3-1,2.3-2.3S654.8,774.1,653.6,774.1z"/>
</g>
<g>
	<circle class="st10" cx="658" cy="824.9" r="5"/>
	<path class="st13" d="M658,830.3c-3,0-5.5-2.5-5.5-5.5c0-3,2.5-5.5,5.5-5.5c3,0,5.5,2.5,5.5,5.5C663.5,827.9,661,830.3,658,830.3z
		 M658,820.4c-2.5,0-4.5,2-4.5,4.5s2,4.5,4.5,4.5c2.5,0,4.5-2,4.5-4.5S660.5,820.4,658,820.4z"/>
</g>
<g>
	<circle class="st10" cx="673.2" cy="733.5" r="4.7"/>
	<path class="st13" d="M673.2,738.7c-2.9,0-5.2-2.3-5.2-5.2s2.3-5.2,5.2-5.2s5.2,2.3,5.2,5.2S676.1,738.7,673.2,738.7z M673.2,729.3
		c-2.3,0-4.2,1.9-4.2,4.2s1.9,4.2,4.2,4.2c2.3,0,4.2-1.9,4.2-4.2S675.6,729.3,673.2,729.3z"/>
</g>
<g>
	<circle class="st10" cx="655.2" cy="716.7" r="2.9"/>
	<path class="st13" d="M655.2,720.1c-1.9,0-3.4-1.5-3.4-3.4s1.5-3.4,3.4-3.4s3.4,1.5,3.4,3.4S657,720.1,655.2,720.1z M655.2,714.3
		c-1.3,0-2.4,1.1-2.4,2.4c0,1.3,1.1,2.4,2.4,2.4c1.3,0,2.4-1.1,2.4-2.4C657.5,715.4,656.5,714.3,655.2,714.3z"/>
</g>
<g>
	<circle class="st10" cx="657" cy="713.8" r="2.9"/>
	<path class="st13" d="M657,717.2c-1.9,0-3.4-1.5-3.4-3.4s1.5-3.4,3.4-3.4s3.4,1.5,3.4,3.4S658.9,717.2,657,717.2z M657,711.5
		c-1.3,0-2.4,1.1-2.4,2.4c0,1.3,1.1,2.4,2.4,2.4c1.3,0,2.4-1.1,2.4-2.4C659.4,712.5,658.4,711.5,657,711.5z"/>
</g>
<g>
	<circle class="st10" cx="677" cy="765.2" r="8.3"/>
	<path class="st13" d="M677,774.1c-4.9,0-8.8-4-8.8-8.8s4-8.8,8.8-8.8s8.8,4,8.8,8.8S681.8,774.1,677,774.1z M677,757.4
		c-4.3,0-7.8,3.5-7.8,7.8c0,4.3,3.5,7.8,7.8,7.8c4.3,0,7.8-3.5,7.8-7.8C684.8,760.9,681.3,757.4,677,757.4z"/>
</g>
<g>
	<circle class="st10" cx="654.2" cy="745.9" r="4.8"/>
	<path class="st13" d="M654.2,751.1c-2.9,0-5.3-2.4-5.3-5.3s2.4-5.3,5.3-5.3c2.9,0,5.3,2.4,5.3,5.3S657.1,751.1,654.2,751.1z
		 M654.2,741.6c-2.3,0-4.3,1.9-4.3,4.3c0,2.3,1.9,4.3,4.3,4.3c2.3,0,4.3-1.9,4.3-4.3C658.5,743.5,656.6,741.6,654.2,741.6z"/>
</g>
<rect x="643.7" y="732.5" class="st17" width="45.6" height="2"/>
<rect x="643.7" y="769.2" class="st17" width="45.6" height="2"/>
<rect x="643.7" y="806" class="st17" width="45.6" height="2"/>
<g>
	<path class="st16" d="M316.5,594.3c-13.1,3.2-91.5,22.3-91.5,22.3l-10-5.1l-9.9-40.6l6.5-9c0,0,76.9-18.7,91.5-22.3
		S329.6,591.1,316.5,594.3z"/>
	<g>
		<path class="st21" d="M237,633.3c-7.8,1.9-19.1-17.1-25.3-42.4c-6.2-25.3-4.8-47.4,3-49.3l6.4-1.6c7.8-1.9,19.1,17.1,25.3,42.4
			c6.2,25.3,4.8,47.4-3,49.3L237,633.3z"/>
		
			<ellipse transform="matrix(0.9716 -0.2364 0.2364 0.9716 -132.4734 70.0377)" class="st1" cx="225.8" cy="587.4" rx="14.6" ry="47.2"/>
	</g>
	<g>
		<path class="st21" d="M221.7,637c-7.8,1.9-19.1-17.1-25.3-42.4c-6.2-25.3-4.8-47.4,3-49.3l6.4-1.6c7.8-1.9,19.1,17.1,25.3,42.4
			c6.2,25.3,4.8,47.4-3,49.3L221.7,637z"/>
		
			<ellipse transform="matrix(0.9716 -0.2364 0.2364 0.9716 -133.7804 66.5378)" class="st1" cx="210.6" cy="591.1" rx="14.6" ry="47.2"/>
	</g>
	<g>
		<path class="st21" d="M206.5,640.7c-7.8,1.9-19.1-17.1-25.3-42.4c-6.2-25.3-4.8-47.4,3-49.3l6.4-1.6c7.8-1.9,19.1,17.1,25.3,42.4
			c6.2,25.3,4.8,47.4-3,49.3L206.5,640.7z"/>
		
			<ellipse transform="matrix(0.9717 -0.2364 0.2364 0.9717 -135.0743 63.03)" class="st1" cx="195.3" cy="594.8" rx="14.6" ry="47.2"/>
	</g>
	<g>
		<path class="st1" d="M190.2,607.9c0.5,2-0.7,4-2.8,4.5l-19,4.6c-2,0.5-4-0.7-4.5-2.8l-5.5-22.6c-0.5-2,0.7-4.1,2.8-4.5l19-4.6
			c2-0.5,4,0.7,4.5,2.8L190.2,607.9z"/>
		<path class="st16" d="M197.5,623.3c-13.1,3.2-13.7,3.3-13.7,3.3l-10-5.1l-9.9-40.6l6.5-9c0,0-0.9,0.2,13.7-3.3
			C198.7,565,210.6,620.1,197.5,623.3z"/>
		<path class="st24" d="M173,571.2c-0.7,0.2-1.3,0.3-2,0.5c14.6-3.6,26.5,51.6,13.3,54.8c0.6-0.2,1.3-0.3,2-0.5
			C199.4,622.8,187.6,567.7,173,571.2z"/>
		<path class="st24" d="M180.2,624.8c5.3-11-1.8-43-12-50l-0.9,1.3c9.2,8,15.5,36.3,11.4,47.9L180.2,624.8z"/>
	</g>
</g>
<path class="st0" d="M431.4,741.6c0,0-20.5-19.1-55.1-19.1c-34.5,0-61.9,9.9-59.8,14.7l6.9,17.9c15.5-2.6,32.2-4.2,50.1-4.2
	l0.3-12.2l0.3,12.2c18.3,0,35.3,1.6,51.1,4.3L431.4,741.6z"/>
<g>
	<path class="st16" d="M436.1,594.1c13.1,3.2,91.5,22.3,91.5,22.3l10-5.1l9.9-40.6l-6.5-9c0,0-76.9-18.7-91.5-22.3
		C434.9,535.8,423,590.9,436.1,594.1z"/>
	<g>
		<path class="st21" d="M515.7,633c7.8,1.9,19.1-17.1,25.3-42.4c6.2-25.3,4.8-47.4-3-49.3l-6.4-1.6c-7.8-1.9-19.1,17.1-25.3,42.4
			c-6.2,25.3-4.8,47.4,3,49.3L515.7,633z"/>
		
			<ellipse transform="matrix(-0.9716 -0.2365 0.2365 -0.9716 899.8684 1282.2512)" class="st1" cx="526.8" cy="587.2" rx="14.6" ry="47.2"/>
	</g>
	<g>
		<path class="st21" d="M530.9,636.7c7.8,1.9,19.1-17.1,25.3-42.4c6.2-25.3,4.8-47.4-3-49.3l-6.4-1.6c-7.8-1.9-19.1,17.1-25.3,42.4
			c-6.2,25.3-4.8,47.4,3,49.3L530.9,636.7z"/>
		
			<ellipse transform="matrix(-0.9716 -0.2364 0.2364 -0.9716 929.0631 1293.1581)" class="st1" cx="542.1" cy="590.9" rx="14.6" ry="47.2"/>
	</g>
	<g>
		<path class="st21" d="M546.1,640.5c7.8,1.9,19.1-17.1,25.3-42.4c6.2-25.3,4.8-47.4-3-49.3l-6.4-1.6c-7.8-1.9-19.1,17.1-25.3,42.4
			c-6.2,25.3-4.8,47.4,3,49.3L546.1,640.5z"/>
		
			<ellipse transform="matrix(-0.9716 -0.2364 0.2364 -0.9716 958.2393 1304.0747)" class="st1" cx="557.3" cy="594.6" rx="14.6" ry="47.2"/>
	</g>
	<g>
		<path class="st1" d="M562.5,607.7c-0.5,2,0.7,4,2.8,4.5l19,4.6c2,0.5,4-0.7,4.5-2.8l5.5-22.6c0.5-2-0.7-4.1-2.8-4.5l-19-4.6
			c-2-0.5-4,0.7-4.5,2.8L562.5,607.7z"/>
		<path class="st16" d="M555.2,623.1c13.1,3.2,13.7,3.3,13.7,3.3l10-5.1l9.9-40.6l-6.5-9c0,0,0.9,0.2-13.7-3.3
			C553.9,564.7,542,619.9,555.2,623.1z"/>
		<path class="st24" d="M579.6,571c0.7,0.2,1.3,0.3,2,0.5c-14.6-3.6-26.5,51.6-13.3,54.8c-0.6-0.2-1.3-0.3-2-0.5
			C553.2,622.6,565,567.5,579.6,571z"/>
		<path class="st24" d="M572.4,624.6c-5.3-11,1.8-43,12-50l0.9,1.3c-9.2,8-15.5,36.3-11.4,47.9L572.4,624.6z"/>
	</g>
</g>
<path class="st1" d="M383.1,535.1h-39.6l-18.1-18.1c0,0-33.8-21.2-91.6,22.3l52.2,49.8l-117,139.4v124.6c0,0,62.4-104.5,208-104.5"
	/>
<path class="st22" d="M371.7,535.1h39.6l18.1-18.1c0,0,33.8-21.2,91.6,22.3l-52.2,49.8l117,139.4v124.6c0,0-62.4-104.5-208-104.5"/>
<path class="st21" d="M314.9,528.2c0-31.6,25.4-61.2,56.7-61.2c31.3,0,56.7,26.8,56.7,61.2C428.4,562.6,314.9,559.9,314.9,528.2z"/>
<polygon class="st24" points="370.9,501.3 366,515.6 376.6,515.6 "/>
<g>
	<polygon class="st24" points="666.2,649.1 661.2,663.4 671.9,663.4 	"/>
	<polygon class="st24" points="666.2,598.3 661.2,583.9 671.9,583.9 	"/>
</g>
<g>
	<polygon class="st24" points="686.5,608.1 701.1,603.8 694.9,595.1 	"/>
	<polygon class="st24" points="645.2,637.6 636.4,650 630.2,641.3 	"/>
</g>
<g>
	<polygon class="st24" points="686,639.6 700.5,643.9 694.3,652.6 	"/>
	<polygon class="st24" points="644.6,610.1 635.8,597.7 629.6,606.4 	"/>
</g>
<polygon class="st24" points="338.6,494.7 328.4,505.9 338.2,510.1 "/>
<polygon class="st24" points="405.5,495.2 407.6,510.3 417.1,505.4 "/>
<path class="st24" d="M423.4,502.4c-0.8-1.9-1.7-3.8-2.7-5.6c-8.4,8.8-27.5,15.1-49.1,15.1c-21.2,0-40.1-6.1-48.7-14.7
	c-1,1.8-1.9,3.6-2.7,5.5c10.3,9.1,29.3,15.1,51.5,15.1C394,517.9,413.1,511.7,423.4,502.4z"/>
<path class="st24" d="M665.6,665.4c-23.1,0-41.8-18.8-41.8-41.8s18.8-41.8,41.8-41.8c23.1,0,41.8,18.8,41.8,41.8
	S688.7,665.4,665.6,665.4z M665.6,585.8c-20.9,0-37.8,17-37.8,37.8s17,37.8,37.8,37.8c20.9,0,37.8-17,37.8-37.8
	S686.5,585.8,665.6,585.8z"/>
<circle class="st22" cx="87.2" cy="623.6" r="52.3"/>
<g>
	<polygon class="st24" points="87.7,649.1 82.8,663.4 93.4,663.4 	"/>
	<polygon class="st24" points="87.7,598.3 82.8,583.9 93.4,583.9 	"/>
</g>
<g>
	<polygon class="st24" points="108.1,608.1 122.7,603.8 116.5,595.1 	"/>
	<polygon class="st24" points="66.7,637.6 57.9,650 51.7,641.3 	"/>
</g>
<g>
	<polygon class="st24" points="107.5,639.6 122.1,643.9 115.9,652.6 	"/>
	<polygon class="st24" points="66.2,610.1 57.3,597.7 51.1,606.4 	"/>
</g>
<path class="st24" d="M87.2,665.4c-23.1,0-41.8-18.8-41.8-41.8s18.8-41.8,41.8-41.8s41.8,18.8,41.8,41.8S110.3,665.4,87.2,665.4z
	 M87.2,585.8c-20.9,0-37.8,17-37.8,37.8s17,37.8,37.8,37.8s37.8-17,37.8-37.8S108.1,585.8,87.2,585.8z"/>
<circle class="st3" cx="86.4" cy="955" r="41.6"/>
<circle class="st22" cx="86.4" cy="955" r="31"/>
<g>
	<polygon class="st24" points="98.8,945.8 107.5,943.2 103.8,938.1 	"/>
	<polygon class="st24" points="74.3,963.3 69.1,970.6 65.4,965.5 	"/>
</g>
<g>
	<polygon class="st24" points="98.5,964.4 107.1,967 103.5,972.1 	"/>
	<polygon class="st24" points="73.9,946.9 68.7,939.6 65,944.8 	"/>
</g>
<path class="st24" d="M86.4,980.6c-14.1,0-25.6-11.5-25.6-25.6s11.5-25.6,25.6-25.6c14.1,0,25.6,11.5,25.6,25.6
	S100.6,980.6,86.4,980.6z M86.4,933.3c-11.9,0-21.6,9.7-21.6,21.6s9.7,21.6,21.6,21.6c11.9,0,21.6-9.7,21.6-21.6
	S98.4,933.3,86.4,933.3z"/>
<circle class="st3" cx="666.6" cy="955" r="41.6"/>
<circle class="st22" cx="666.6" cy="955" r="31"/>
<g>
	<polygon class="st24" points="679,945.8 687.6,943.2 683.9,938.1 	"/>
	<polygon class="st24" points="654.4,963.3 649.2,970.6 645.5,965.5 	"/>
</g>
<g>
	<polygon class="st24" points="678.6,964.4 687.2,967 683.6,972.1 	"/>
	<polygon class="st24" points="654.1,946.9 648.8,939.6 645.1,944.8 	"/>
</g>
<path class="st24" d="M666.6,980.6c-14.1,0-25.6-11.5-25.6-25.6s11.5-25.6,25.6-25.6c14.1,0,25.6,11.5,25.6,25.6
	S680.7,980.6,666.6,980.6z M666.6,933.3c-11.9,0-21.6,9.7-21.6,21.6s9.7,21.6,21.6,21.6c11.9,0,21.6-9.7,21.6-21.6
	S678.5,933.3,666.6,933.3z"/>
<rect x="320.5" y="584.9" class="st11" width="112.8" height="3"/>
<rect x="319.9" y="582.9" class="st7" width="112.8" height="3"/>
<rect x="299.4" y="615.6" class="st11" width="154.9" height="3"/>
<rect x="299.4" y="613.4" class="st7" width="154.9" height="3"/>
<rect x="283.8" y="654.7" class="st11" width="186.2" height="3"/>
<rect x="284.1" y="652.9" class="st7" width="186.2" height="3"/>
<polygon class="st24" points="373.8,599.5 364.6,586.8 373.8,574 383.1,586.8 "/>
<polygon class="st24" points="373.8,633.4 362,617.1 373.8,600.8 385.7,617.1 "/>
<polygon class="st24" points="373.8,678.3 357.8,656.2 373.8,634.2 389.9,656.2 "/>
<path class="st16" d="M382.4,474.2c0,6.7-22.2,7.8-22.2,0c0-11.1,0-26.3,0-26.3h22.2C382.4,447.9,382.4,467.6,382.4,474.2z"/>
<ellipse class="st22" cx="371.3" cy="447.2" rx="34.5" ry="9.2"/>
<path class="st16" d="M382.4,443.9c0,6.7-22.2,7.8-22.2,0c0-11.1,0-11.5,0-11.5h22.2C382.4,432.4,382.4,437.2,382.4,443.9z"/>
<ellipse class="st22" cx="371.3" cy="430.7" rx="34.5" ry="9.2"/>
<path class="st16" d="M382.4,427.1c0,6.7-22.2,7.8-22.2,0c0-11.1,0-11.5,0-11.5h22.2C382.4,415.6,382.4,420.5,382.4,427.1z"/>
<ellipse class="st22" cx="371.3" cy="414.2" rx="34.5" ry="9.2"/>
<path class="st16" d="M383.5,409.7c0,6.7-22.2,7.8-22.2,0c0-11.1,0-85.6,0-85.6h22.2C383.5,324.1,383.5,403.1,383.5,409.7z"/>
<path class="st22" d="M318.2,313.8l1.3,23c0,0,11.4,49.7,51.5,49.7c40.1,0,56.8-40,58.1-51.2c1.3-11.1,0-21.5,0-21.5
	s1.3-13.3-58.1-14.1C311.5,298.9,318.2,313.8,318.2,313.8z"/>
<path class="st0" d="M492,231.5c0,8.2-6.4,14.8-14.3,14.8H274.2c-7.9,0-14.3-6.6-14.3-14.8v-33.4c0-8.2,6.4-14.8,14.3-14.8h203.5
	c7.9,0,14.3,6.6,14.3,14.8V231.5z"/>
<rect x="355.3" y="20.6" class="st24" width="33.4" height="163.5"/>
<rect x="472.5" y="183.3" class="st18" width="4.8" height="62.3"/>
<rect x="463.6" y="183.3" class="st18" width="4.8" height="62.3"/>
<polygon class="st11" points="320.1,315.7 350,315.7 350,366.8 343.7,322 "/>
<polygon class="st11" points="425.2,313.5 395.3,313.5 395.3,364.6 401.6,319.8 "/>
<polygon class="st16" points="292.6,217.4 320.1,331 427.9,331 455,214.5 "/>
<g>
	<rect x="334.2" y="84.8" class="st6" width="73.4" height="6.9"/>
	<path class="st14" d="M409.1,93.2h-76.4v-9.9h76.4V93.2z M335.7,90.2h70.4v-3.9h-70.4V90.2z"/>
</g>
<g>
	<rect x="334.2" y="66.1" class="st6" width="73.4" height="6.9"/>
	<path class="st14" d="M409.1,74.5h-76.4v-9.9h76.4V74.5z M335.7,71.5h70.4v-3.9h-70.4V71.5z"/>
</g>
<g>
	<rect x="334.2" y="47.4" class="st6" width="73.4" height="6.9"/>
	<path class="st14" d="M409.1,55.8h-76.4v-9.9h76.4V55.8z M335.7,52.8h70.4v-3.9h-70.4V52.8z"/>
</g>
<rect x="272.4" y="183.3" class="st18" width="4.8" height="62.3"/>
<rect x="281.2" y="183.3" class="st18" width="4.8" height="62.3"/>
<g>
	<rect x="335.8" y="28.6" class="st6" width="73.4" height="6.9"/>
	<path class="st14" d="M410.7,37.1h-76.4v-9.9h76.4V37.1z M337.3,34.1h70.4v-3.9h-70.4V34.1z"/>
</g>
<path class="st22" d="M318.2,270.8l106.8-0.7c0,0,1.5-52.6,57.1-47.4c0,0,11.1-109,3.7-139.4s-37.1-72.7-97.1-72.7l-3,90.4h-10.4
	v63.8h-8.9v-62.3h-7.4V9.8c0,0-85.3-3.7-86.7,73.4c-1.5,77.1-1.5,142.3-1.5,142.3S309.3,204.8,318.2,270.8z"/>
<circle class="st9" cx="313.7" cy="160.3" r="31.9"/>
<circle class="st9" cx="431.6" cy="160.3" r="31.9"/>
<circle class="st14" cx="314.2" cy="160" r="23.4"/>
<path class="st12" d="M314.2,185.8c-14.3,0-25.9-11.6-25.9-25.9c0-14.3,11.6-25.9,25.9-25.9S340,145.7,340,160
	C340,174.2,328.4,185.8,314.2,185.8z M314.2,139.1c-11.5,0-20.9,9.4-20.9,20.9c0,11.5,9.4,20.9,20.9,20.9c11.5,0,20.9-9.4,20.9-20.9
	C335,148.5,325.7,139.1,314.2,139.1z"/>
<circle class="st14" cx="432" cy="160" r="23.4"/>
<path class="st12" d="M432,185.8c-14.3,0-25.9-11.6-25.9-25.9c0-14.3,11.6-25.9,25.9-25.9c14.3,0,25.9,11.6,25.9,25.9
	C457.9,174.2,446.3,185.8,432,185.8z M432,139.1c-11.5,0-20.9,9.4-20.9,20.9c0,11.5,9.4,20.9,20.9,20.9c11.5,0,20.9-9.4,20.9-20.9
	C452.9,148.5,443.5,139.1,432,139.1z"/>
<polygon class="st11" points="302.3,99.9 344.6,99.9 344.6,27.7 335.7,91 "/>
<polygon class="st11" points="438.7,99.9 396.5,99.9 396.5,27.7 405.3,91 "/>
<polygon class="st9" points="355.3,161.1 364.5,254.8 379.3,254.8 379.5,253.1 386.4,163.3 393.1,176.7 380.9,260.1 360.9,260.1 
	350.9,180 "/>
<path class="st22" d="M419.4,305.7c0,10.8-43.8,9.8-43.8,9.8c-4.4,0-51.8,2.8-51.8-8c0-10.8,20-28.5,46.6-28.5
	C397,279,419.4,294.9,419.4,305.7z"/>
<path class="st20" d="M416,305.6c0,9-40.8,8.2-40.8,8.2c-4.1,0-48.2,2.3-48.2-6.7c0-9,18.6-23.7,43.4-23.7
	C395.2,283.4,416,296.6,416,305.6z"/>
<rect x="367.8" y="289.1" class="st24" width="9.2" height="19.2"/>
<rect x="351.5" y="292.4" class="st24" width="9.2" height="15.8"/>
<rect x="384.1" y="292.4" class="st24" width="9.2" height="15.8"/>
<polygon class="st9" points="478.7,218.9 478.7,176.7 466.5,217.8 "/>
<g>
	<path class="st6" d="M306,172.5l-4.5-4.5l5.5-5.5h-7.5V156h6.6l-4.5-4.5l4.5-4.5l8.2,8.2l7.9-7.9l4.5,4.5l-4.2,4.2h6.3v6.4h-7.3
		l5.2,5.2l-4.5,4.5l-7.9-7.9L306,172.5z M304.4,167.9l1.7,1.7l8.2-8.2l7.9,7.9l1.7-1.7l-7.2-7.2h10.1V158h-9.1l6.2-6.2l-1.7-1.7
		l-7.9,7.9l-8.2-8.2l-1.7,1.7l6.5,6.5h-9.4v2.4h10.4L304.4,167.9z"/>
	<ellipse class="st6" cx="314.1" cy="159.7" rx="2.7" ry="4.9"/>
</g>
<g>
	<path class="st6" d="M424.3,172.5l-4.5-4.5l5.5-5.5h-7.5V156h6.6l-4.5-4.5l4.5-4.5l8.2,8.2l7.9-7.9l4.5,4.5l-4.2,4.2h6.3v6.4h-7.3
		l5.2,5.2l-4.5,4.5l-7.9-7.9L424.3,172.5z M422.6,167.9l1.7,1.7l8.2-8.2l7.9,7.9l1.7-1.7l-7.2-7.2h10.1V158h-9.1l6.2-6.2l-1.7-1.7
		l-7.9,7.9l-8.2-8.2l-1.7,1.7l6.5,6.5h-9.4v2.4h10.4L422.6,167.9z"/>
	<ellipse class="st6" cx="432.3" cy="159.7" rx="2.7" ry="4.9"/>
</g>
<polygon class="st9" points="274.1,218.9 274.1,176.7 286.4,217.8 "/>
</svg>
